<svg width="11" height="17" viewBox="0 0 11 17" fill="none" xmlns="http://www.w3.org/2000/svg">
<path d="M5.5 0C2.57034 0 0.1875 2.38284 0.1875 5.3125V12.927C0.1875 13.2203 0.425499 13.4583 0.71875 13.4583C1.012 13.4583 1.25 13.2203 1.25 12.927V5.3125C1.25 2.96857 3.15607 1.0625 5.5 1.0625C7.84393 1.0625 9.75 2.96857 9.75 5.3125V13.1042C9.75 14.6667 8.4792 15.9375 6.91671 15.9375C5.35409 15.9375 4.08329 14.6667 4.08329 13.1042V6.02079C4.08329 5.23948 4.71869 4.60421 5.5 4.60421C6.28131 4.60421 6.91671 5.23948 6.91671 6.02079V12.927C6.91671 13.2203 7.15471 13.4583 7.44796 13.4583C7.74121 13.4583 7.97921 13.2203 7.97921 12.927V6.02079C7.97921 4.65376 6.86703 3.54171 5.5 3.54171C4.13297 3.54171 3.02079 4.65376 3.02079 6.02079V13.1042C3.02079 15.2518 4.76823 17 6.91671 17C9.06506 17 10.8125 15.2518 10.8125 13.1042V5.3125C10.8125 2.38284 8.42966 0 5.5 0Z" fill="white"/>
</svg>
