<svg width="17" height="12" viewBox="0 0 17 12" fill="none" xmlns="http://www.w3.org/2000/svg">
<path d="M16.4545 1.01683C16.4545 0.454545 16 0 15.4377 0H1.01683C0.454545 0 0 0.454545 0 1.01683V10.9832C0 11.5455 0.454545 12 1.01683 12H15.4714C16.0337 12 16.4882 11.5455 16.4545 10.9461V1.01683ZM15.7879 4.45791H0.703704V3.44108H15.7879V4.45791ZM0.666667 1.05387C0.666667 0.841751 0.841751 0.703703 1.01683 0.703703V0.670033H15.4377C15.6498 0.670033 15.7879 0.845118 15.7879 1.0202V2.77441H0.666667V1.05387ZM15.7879 10.9832C15.7879 11.1953 15.6128 11.3333 15.4377 11.3333H1.01683C0.804714 11.3333 0.666667 11.1582 0.666667 10.9832V5.15825H15.7879V10.9832Z" fill="#111111"/>
</svg>
