<svg width="15" height="14" viewBox="0 0 15 14" fill="none" xmlns="http://www.w3.org/2000/svg">
<path d="M4.44738e-08 0H1.01744V5.37209H4.44738e-08V0Z" fill="white"/>
<path d="M5.59593 0V0.976744L0 0.976744L4.44738e-08 0H5.59593Z" fill="white"/>
<path d="M4.44738e-08 14L0 13.0233H5.59593V14H4.44738e-08Z" fill="white"/>
<path d="M4.44738e-08 8.62791H1.01744V14H4.44738e-08V8.62791Z" fill="white"/>
<path d="M14.5833 14H13.5659V8.62791H14.5833V14Z" fill="white"/>
<path d="M8.9874 14V13.0233H14.5833V14H8.9874Z" fill="white"/>
<path d="M14.5833 0V0.976744L8.9874 0.976745V7.04465e-07L14.5833 0Z" fill="white"/>
<path d="M14.5833 5.37209H13.5659V8.53897e-08L14.5833 0V5.37209Z" fill="white"/>
</svg>
