<svg width="17" height="19" viewBox="0 0 17 19" fill="none" xmlns="http://www.w3.org/2000/svg">
<path d="M14.5986 6.05436C14.5852 6.04416 14.5694 6.04099 14.5553 6.0329C14.5757 5.84223 14.587 5.64874 14.587 5.4528C14.587 2.44602 12.1406 0 9.13347 0H2.62635C2.45116 0 2.30235 0.129108 2.27808 0.302542L0.0033835 16.4868C-0.0106882 16.5878 0.019566 16.6898 0.0860549 16.7668C0.152896 16.8439 0.249991 16.8878 0.351659 16.8878H3.98428C3.83512 17.8623 3.69018 18.5694 3.68877 18.5775C3.66731 18.6809 3.69405 18.7889 3.76054 18.8705C3.82738 18.9525 3.92764 19 4.03317 19H7.66368C7.83852 19 7.98698 18.8716 8.01196 18.6985L8.67262 14.1111H11.722C14.2714 14.1111 16.3459 12.0855 16.3459 9.59586C16.3463 8.20804 15.7095 6.91731 14.5986 6.05436ZM2.93206 0.703586H9.13383C11.7529 0.703586 13.8837 2.83405 13.8837 5.45385C13.8837 8.0719 11.7533 10.202 9.13383 10.202H5.23807C5.06287 10.202 4.91406 10.3311 4.88979 10.5049L4.09157 16.1842H0.756573L2.93206 0.703586ZM11.7227 13.4072H8.36868C8.19383 13.4072 8.04538 13.5356 8.0204 13.7087L7.35973 18.2961H4.4599C4.52991 17.9207 4.63439 17.3251 4.73395 16.6352C4.73465 16.631 4.73289 16.6272 4.73324 16.6229C4.73676 16.6099 4.74415 16.5983 4.74591 16.5846L5.54378 10.9056H9.13383C11.6685 10.9056 13.7983 9.16562 14.4072 6.81916C15.1938 7.53893 15.6427 8.53239 15.6427 9.59586C15.6427 11.6975 13.8841 13.4072 11.7227 13.4072Z" fill="#424242"/>
</svg>
