<svg width="14" height="14" viewBox="0 0 14 14" fill="none" xmlns="http://www.w3.org/2000/svg">
<path d="M5.25391 5.20005C5.39497 4.79905 5.6734 4.46091 6.03988 4.24553C6.40636 4.03014 6.83724 3.95141 7.25621 4.02328C7.67518 4.09514 8.0552 4.31296 8.32895 4.63817C8.60271 4.96337 8.75254 5.37496 8.75191 5.80005C8.75191 7.00005 6.95191 7.60005 6.95191 7.60005M7 10H7.006M13 7C13 10.3137 10.3137 13 7 13C3.68629 13 1 10.3137 1 7C1 3.68629 3.68629 1 7 1C10.3137 1 13 3.68629 13 7Z" stroke="#424242" stroke-linecap="round" stroke-linejoin="round"/>
</svg>
